                                 1st On Net

              Org. DVD Hindi-Tamil-Telugu Audio 2Ch.AC3

                  Tamil-Telugu Audio Are Separated



    Clash Of The Titans(2010) 1080p BDRip[Hindi-Eng-Tamil-Telugu]AC3-DGrea8


Summary:-

Princess Andromeda is the daughter of King Cepheus, who has gained a victory against the gods. The vengeful god of the underworld, Hades, demands that Andromeda is offered as a sacrifice or he will unleash the Kraken against Argos. A desperate King Cepheus asks demi-god Perseus to find a way to defeat the Kraken. Perseus accepts the challenge because Hades was responsible for his family's death. He discovers that the way to kill the Kraken lies with getting the head of the gorgon Medusa.


Cast:-


Sam Worthington	 ...	Perseus
Liam Neeson	 ...	Zeus
Ralph Fiennes	 ...	Hades
Jason Flemyng	 ...	Calibos / Acrisius
Gemma Arterton	 ...	Io
Alexa Davalos	 ...	Andromeda
Tine Stapelfeldt ...	Danae
Mads Mikkelsen	 ...	Draco
Luke Evans	 ...	Apollo
Izabella Miko	 ...	Athena
Liam Cunningham	 ...	Solon
Hans Matheson	 ...	Ixas
Ashraf Barhom	 ...	Ozal
Mouloud Achour	 ...	Kucuk
Ian Whyte	 ...	Sheikh Sulieman



Video & Audio Info.:-

Director: Louis Leterrier
Writers: Travis Beacham (screenplay), Phil Hay (screenplay)
Stars: Sam Worthington, Liam Neeson, Ralph Fiennes
Release Date:2 April 2010 (USA)
Filming Locations: Danakil Desert, Ethiopia
Genres: Action | Adventure | Fantasy


Video
ID : 1
Format : AVC
Format/Info : Advanced Video Codec
Format profile : Main@L4.0
Format settings, CABAC : Yes
Format settings, ReFrames : 4 frames
Muxing mode : Header stripping
Codec ID : V_MPEG4/ISO/AVC
Duration : 1h 41mn
Width : 1 920 pixels
Height : 800 pixels
Display aspect ratio : 2.40:1
Frame rate mode : Variable
Frame rate : 25.000 fps
Color space : YUV
Chroma subsampling : 4:2:0
Bit depth : 8 bits
Scan type : Progressive


Audio #1
ID : 2
Format : AAC
Format/Info : Advanced Audio Codec
Format profile : LC
Codec ID : A_AAC
Duration : 1h 41mn
Channel(s) : 6 channels
Channel positions : Front: L C R, Side: L R, LFE
Sampling rate : 48.0 KHz
Compression mode : Lossy
Language : English

Audio #2
ID : 3
Format : AC-3
Format/Info : Audio Coding 3
Mode extension : CM (complete main)
Muxing mode : Header stripping
Codec ID : A_AC3
Duration : 1h 41mn
Bit rate mode : Constant
Bit rate : 224 Kbps
Channel(s) : 2 channels
Channel positions : Front: L R
Sampling rate : 48.0 KHz
Bit depth : 16 bits
Compression mode : Lossy
Delay relative to video : 300ms
Stream size : 163 MiB (5%)
Language : Hindi

Audio #3
ID : 4
Format : AC-3
Format/Info : Audio Coding 3
Mode extension : CM (complete main)
Muxing mode : Header stripping
Codec ID : A_AC3
Duration : 1h 41mn
Bit rate mode : Constant
Bit rate : 224 Kbps
Channel(s) : 2 channels
Channel positions : Front: L R
Sampling rate : 48.0 KHz
Bit depth : 16 bits
Compression mode : Lossy
Delay relative to video : 300ms
Stream size : 163 MiB (5%)
Language : Tamil

Audio #4
ID : 5
Format : AC-3
Format/Info : Audio Coding 3
Mode extension : CM (complete main)
Muxing mode : Header stripping
Codec ID : A_AC3
Duration : 1h 41mn
Bit rate mode : Constant
Bit rate : 224 Kbps
Channel(s) : 2 channels
Channel positions : Front: L R
Sampling rate : 48.0 KHz
Bit depth : 16 bits
Compression mode : Lossy
Delay relative to video : 300ms
Stream size : 163 MiB (5%)
Language : Telugu


Subtitle Languages : English



Screen Shoots:-
 
http://www.shotpix.com/images/20389486544550921315.jpg
 
http://www.shotpix.com/images/72998449142891896942.jpg
 
http://www.shotpix.com/images/42434695361084972178.jpg
 
http://www.shotpix.com/images/77374564274082211217.jpg
 
http://www.shotpix.com/images/22615069070237191937.jpg


Note:-- Check The Torrent


Check The Sample Video In This Torrent	